<?xml version="1.0" encoding="UTF-8" standalone="no"?>
<svg xmlns:rdf="http://www.w3.org/1999/02/22-rdf-syntax-ns#" xmlns="http://www.w3.org/2000/svg" xml:space="preserve" height="70.715" width="91.729" version="1.1" xmlns:cc="http://creativecommons.org/ns#" xmlns:dc="http://purl.org/dc/elements/1.1/" viewBox="0 0 91.729134 70.715379"><g><path d="m76.066 0.60352c-0.136 0-69.666 0.00976-69.666 0.00976l16.063 14.414-21.703 55.073c-0.00046 0 50.56 0.019 54.994 0.019 7.84 0 12.475-1 15.998-3.447 3.586-2.49 6.065-6.484 8.564-13.783l0.03-0.084 0.017-0.086c1.198-5.025 1.315-8.611 0.381-11.629-0.668-2.152-1.877-3.962-3.666-5.467 3.002-1.051 5.447-2.781 7.402-5.227 2.482-3.099 3.899-6.985 5.268-10.744l0.293-0.798 0.012-0.036 0.013-0.035c1.795-5.597 1.536-10.04-0.771-13.203l-0.002 0.0001c-2.41-3.3016-6.858-4.9766-13.227-4.9766zm-32.468 17.216l23.566 0.018-3.117 7.998c-0.243 0.63-1.13 1.242-1.791 1.242l-20.705-0.006 3.125-8.164-1.078-1.088zm-7.877 24.5l22.377 0.004-3.528 9.082c-0.245 0.629-1.138 1.248-1.802 1.248h-0.002l-21.118 0.002 4.073-10.336z" fill="#fa4616" transform="translate(-.00017929)"/><path d="m76.062 2.4528c-0.13262 0-0.26612 0.00075-0.402 0.0025-2.6691 0-64.456 0.005-64.456 0.005l13.439 12.059-21.181 53.748s47.854 0.017 52.288 0.017c13.886 0 18.37-2.9854 22.82-15.984 2.024-8.495 1.174-14.111-6.3-17.468 10.811-1.295 13.206-8.878 16.038-16.607 3.577-11.156-1.944-15.775-12.246-15.775m-16.216 40.452-3.5645 9.1689c-0.521 1.338-2.093 2.422-3.52 2.422l-23.824 0.0037 5.5242-14.021 23.745 0.005c1.4228 0 2.1562 1.0855 1.6386 2.4216m9.064-24.481-3.151 8.087c-0.518 1.339-2.081 2.416-3.507 2.416l-23.381-0.0075 3.6551-9.5538-3.3558-3.385 28.101 0.021c1.4228 0 2.158 1.0846 1.6395 2.4225" stroke="#0033a0" stroke-width="1.25" fill="#0033a0"/></g></svg>
